<svg xmlns="http://www.w3.org/2000/svg" width="131" height="60" viewBox="0 0 131 60">
    <g fill="none" fill-rule="evenodd">
        <polygon fill="#FF352E" points="28.7 24 131 24 131 19.9 28.7 19.9"/>
        <polygon fill="#FF352E" points="28.7 14.1 131 14.1 131 9.9 28.7 9.9"/>
        <polygon fill="#FF352E" points="28.7 4.1 131 4.1 131 0 28.7 0"/>
        <polygon fill="#001C60" points="0 24 24.6 24 24.6 19.9 0 19.9"/>
        <polygon fill="#001C60" points="0 14.1 24.6 14.1 24.6 9.9 0 9.9"/>
        <polygon fill="#001C60" points="0 4.1 24.6 4.1 24.6 0 0 0"/>
        <path fill="#001C60" fill-rule="nonzero" d="M24.9983545 54.6182796L24.9983545 53.1599462 20 53.1599462 20 59.8400538 22.0443368 59.8400538 22.0443368 57.2620968 24.8222872 57.2620968 24.8222872 55.8319892 22.0443368 55.8319892 22.0443368 54.6182796 24.9983545 54.6182796zM29.4333401 60C31.6048366 60 32.9938118 58.6451613 32.9938118 56.5 32.9938118 54.3548387 31.6048366 53 29.4333401 53 27.2618436 53 25.8728684 54.3548387 25.8728684 56.5 25.8728684 58.6451613 27.2618436 60 29.4333401 60zM29.4333401 58.4852151C28.5138776 58.4852151 27.9661128 57.7513441 27.9661128 56.5 27.9661128 55.2486559 28.5138776 54.5147849 29.4333401 54.5147849 30.3528026 54.5147849 30.9005675 55.2486559 30.9005675 56.5 30.9005675 57.7513441 30.3528026 58.4852151 29.4333401 58.4852151zM38.2113187 59.8400538L40.4023782 59.8400538 38.9938399 57.1021505C39.7763612 56.7822581 40.2458739 56.1236559 40.2458739 55.2674731 40.2458739 53.9032258 39.3068484 53.1599462 37.5755202 53.1599462L34.2595864 53.1599462 34.2595864 59.8400538 36.3039231 59.8400538 36.3039231 57.3938172 37.0766629 57.3938172 38.2113187 59.8400538zM36.3039231 54.4771505L37.1157889 54.4771505C37.780932 54.4771505 38.1135035 54.7405914 38.1135035 55.2674731 38.1135035 55.8225806 37.761369 56.1236559 37.1157889 56.1236559L36.3039231 56.1236559 36.3039231 54.4771505zM47.2182312 60C48.2648533 60 49.0278116 59.6236559 49.3995092 58.9180108L49.4484167 59.8400538 50.8862995 59.8400538 50.8862995 55.9919355 47.4823321 55.9919355 47.4823321 57.3561828 49.0082485 57.3561828 49.0082485 57.5067204C49.0082485 58.0524194 48.4017946 58.5228495 47.707307 58.5228495 46.7389369 58.5228495 46.2107351 57.8172043 46.2107351 56.4811828 46.2107351 55.1827957 46.7584999 54.4395161 47.6877439 54.4395161 48.3235424 54.4395161 48.7539291 54.7876344 48.8810888 55.4556452L50.9156441 55.0698925C50.6417616 53.7526882 49.4581982 53 47.6877439 53 45.5162475 53 44.1077092 54.3830645 44.1077092 56.5188172 44.1077092 58.6922043 45.2814911 60 47.2182312 60zM52.2792338 53.1599462L52.2792338 57.5067204C52.2792338 59.0497312 53.4530157 60 55.3701927 60 57.2873698 60 58.4611517 59.0497312 58.4611517 57.5067204L58.4611517 53.1599462 56.4168149 53.1599462 56.4168149 57.4314516C56.4168149 58.0524194 56.0157728 58.438172 55.3701927 58.438172 54.7246127 58.438172 54.3235706 58.0524194 54.3235706 57.4314516L54.3235706 53.1599462 52.2792338 53.1599462zM60.0203717 59.8400538L61.9082042 59.8400538 61.9082042 55.7567204 61.9277673 55.7567204C62.0158009 55.9731183 62.1820867 56.2741935 62.3288094 56.5564516L64.2851125 59.8400538 66.3979199 59.8400538 66.3979199 53.1599462 64.5100874 53.1599462 64.5100874 57.2526882 64.4905244 57.2526882C64.4024907 57.0268817 64.2068604 56.641129 64.0699192 56.3870968L62.2309943 53.1599462 60.0203717 53.1599462 60.0203717 59.8400538zM73.3018065 60C75.170076 60 76.3145133 59.1532258 76.3145133 57.7607527 76.3145133 56.641129 75.7374039 56.0201613 74.4168993 55.7379032L73.4191847 55.5215054C72.7051341 55.3709677 72.4801592 55.2204301 72.4801592 54.9099462 72.4801592 54.6182796 72.8127308 54.4395161 73.3507141 54.4395161 74.0158572 54.4395161 74.7396893 54.75 75.2189836 55.2580645L76.382984 54.0067204C75.6884963 53.3481183 74.6712187 53 73.5072184 53 71.736764 53 70.6412343 53.7715054 70.6412343 55.0416667 70.6412343 56.1518817 71.3161589 56.8575269 72.6562265 57.1397849L73.5365629 57.327957C74.1821429 57.4596774 74.3777733 57.6008065 74.3777733 57.9395161 74.3777733 58.2876344 73.9962941 58.4946237 73.3800587 58.4946237 72.626882 58.4946237 71.9715204 58.1747312 71.4922262 57.563172L70.1130325 58.7768817C70.7781755 59.5577957 71.9519574 60 73.3018065 60zM82.1776003 59.8400538L84.221937 59.8400538 81.7569951 53.1599462 79.3311792 53.1599462 76.8662373 59.8400538 78.9105741 59.8400538 79.3507423 58.4758065 81.7374321 58.4758065 82.1776003 59.8400538zM81.3168269 57.1586022L79.7713474 57.1586022 80.3288368 55.4030612C80.4075452 55.1491935 80.4784113 54.8870968 80.5343056 54.5241935L80.5538687 54.5241935C80.609763 54.8870968 80.6806291 55.1491935 80.7593375 55.4030612L81.3168269 57.1586022zM90.3882509 54.6182796L90.3882509 53.1599462 85.3898965 53.1599462 85.3898965 59.8400538 87.4342332 59.8400538 87.4342332 57.2620968 90.2121836 57.2620968 90.2121836 55.8319892 87.4342332 55.8319892 87.4342332 54.6182796 90.3882509 54.6182796zM93.6983623 58.4287634L93.6983623 57.1209677 96.4860942 57.1209677 96.4860942 55.7379032 93.6983623 55.7379032 93.6983623 54.5712366 96.65238 54.5712366 96.65238 53.1599462 91.6540255 53.1599462 91.6540255 59.8400538 96.7208506 59.8400538 96.7208506 58.4287634 93.6983623 58.4287634zM103.542526 53.1599462L97.6442721 53.1599462 97.6442721 54.702957 99.5712307 54.702957 99.5712307 59.8400538 101.615567 59.8400538 101.615567 54.702957 103.542526 54.702957 103.542526 53.1599462zM106.657007 59.8400538L106.657007 57.563172 104.368132 53.1599462 106.510284 53.1599462 107.51778 55.4274194C107.586251 55.5873656 107.64494 55.7755376 107.674285 55.9731183L107.693848 55.9731183C107.723192 55.7755376 107.781881 55.5873656 107.850352 55.4274194L108.857848 53.1599462 111 53.1599462 108.711125 57.563172 108.711125 59.8400538 106.657007 59.8400538zM4.11462376 43.6330645L4.11462376 40.8306452 9.72547434 40.8306452 9.72547434 37.8669355 4.11462376 37.8669355 4.11462376 35.3669355 10.0601567 35.3669355 10.0601567 32.3427419 0 32.3427419 0 46.6572581 10.197967 46.6572581 10.197967 43.6330645 4.11462376 43.6330645zM16.7814585 46.6572581L21.6245085 46.6572581 26.2509994 32.3427419 21.8213805 32.3427419 19.6361018 40.8508065 19.5176637 41.3351613C19.3746559 41.9370968 19.2896072 42.3790323 19.2423579 42.8467742L19.1636091 42.8467742C19.1045476 42.2620968 18.9864244 41.7177419 18.7698652 40.8508065L16.5845866 32.3427419 12.1549677 32.3427419 16.7814585 46.6572581zM32.5194958 43.6330645L32.5194958 40.8306452 38.1303463 40.8306452 38.1303463 37.8669355 32.5194958 37.8669355 32.5194958 35.3669355 38.4650287 35.3669355 38.4650287 32.3427419 28.404872 32.3427419 28.404872 46.6572581 38.602839 46.6572581 38.602839 43.6330645 32.5194958 43.6330645zM49.4978263 46.6572581L53.9077579 46.6572581 51.0728019 40.7903226C52.6477775 40.1048387 53.5927628 38.6935484 53.5927628 36.858871 53.5927628 33.9354839 51.7027921 32.3427419 48.2181586 32.3427419L41.5441995 32.3427419 41.5441995 46.6572581 45.6588232 46.6572581 45.6588232 41.4153226 47.2141116 41.4153226 49.4978263 46.6572581zM45.6588232 35.1653226L47.2928604 35.1653226C48.6315897 35.1653226 49.3009543 35.7298387 49.3009543 36.858871 49.3009543 38.0483871 48.5922153 38.6935484 47.2928604 38.6935484L45.6588232 38.6935484 45.6588232 35.1653226zM58.7981507 46.6572581L62.9324616 46.6572581 62.9324616 41.7782258 67.5392653 32.3427419 63.2277696 32.3427419 61.1999885 37.2016129C61.0621781 37.5443548 60.944055 37.9475806 60.8849934 38.3709677L60.845619 38.3709677C60.7865574 37.9475806 60.6684342 37.5443548 60.5306239 37.2016129L58.5028428 32.3427419 54.1913471 32.3427419 58.7981507 41.7782258 58.7981507 46.6572581zM80.4981268 32.3427419L68.6267482 32.3427419 68.6267482 35.6491935 72.5051256 35.6491935 72.5051256 46.6572581 76.6197494 46.6572581 76.6197494 35.6491935 80.4981268 35.6491935 80.4981268 32.3427419zM88.5384708 47C92.9090281 47 95.7046097 44.0967742 95.7046097 39.5 95.7046097 34.9032258 92.9090281 32 88.5384708 32 84.1679135 32 81.3723318 34.9032258 81.3723318 39.5 81.3723318 44.0967742 84.1679135 47 88.5384708 47zM88.5384708 43.7540323C86.6878744 43.7540323 85.5853915 42.1814516 85.5853915 39.5 85.5853915 36.8185484 86.6878744 35.2459677 88.5384708 35.2459677 90.3890671 35.2459677 91.49155 36.8185484 91.49155 39.5 91.49155 42.1814516 90.3890671 43.7540323 88.5384708 43.7540323zM100.102823 46.6572581L104.61119 46.6572581 106.107417 37.7459677C106.166479 37.3629032 106.186166 36.9596774 106.205853 36.4959677L106.284602 36.4959677 106.310746 37.0259677C106.326339 37.2790323 106.347601 37.516129 106.383038 37.7459677L107.879265 46.6572581 112.387632 46.6572581 115.714768 32.3427419 111.56077 32.3427419 110.123605 40.3870968C110.044856 40.8709677 110.025169 41.3346774 110.005482 41.7983871L109.94642 41.7983871C109.93067 41.4274194 109.902321 41.0564516 109.841212 40.6751613L108.312383 32.3427419 104.178072 32.3427419 102.701532 40.3870968C102.603096 40.8709677 102.563722 41.3346774 102.544035 41.7983871L102.484973 41.7983871C102.465286 41.3346774 102.445599 40.8709677 102.36685 40.3870968L100.929685 32.3427419 96.7756867 32.3427419 100.102823 46.6572581zM118.163949 46.6572581L118.163949 32.3427419 122.613255 32.3427419 126.314448 39.2580645 126.512022 39.655925C126.754371 40.1528773 127.023187 40.7365591 127.160997 41.1129032L127.200371 41.1129032 127.200371 32.3427419 131 32.3427419 131 46.6572581 126.747566 46.6572581 122.810127 39.6209677 122.362243 38.7111895C122.219511 38.4163306 122.091544 38.1391129 122.002952 37.9072581L121.963577 37.9072581 121.963577 46.6572581 118.163949 46.6572581z"/>
    </g>
</svg>